{
  "source": "C:\\Users\\Peter\\Desktop\\stuff\\MIUN\\quantitative_research\\video_compression\\videos\\HEVC_CLASS_B\\Cactus_1920x1080_50.y4m",
  "output": "C:\\Users\\Peter\\Desktop\\stuff\\MIUN\\quantitative_research\\video_compression\\compressed_videos\\HEVC_CLASS_B\\av1\\1\\Cactus_1920x1080_50_av1.mkv",
  "codec": "av1",
  "ok": "Input #0, yuv4mpegpipe, from 'C:\\Users\\Peter\\Desktop\\stuff\\MIUN\\quantitative_research\\video_compression\\videos\\HEVC_CLASS_B\\Cactus_1920x1080_50.y4m':\n  Duration: 00:00:10.00, start: 0.000000, bitrate: 1244162 kb/s\n  Stream #0:0: Video: rawvideo (I420 / 0x30323449), yuv420p(progressive), 1920x1080, 50 fps, 50 tbr, 50 tbn\n[out#0/matroska @ 0000020824b79080] Codec AVOption b:a (set bitrate (in bits/s)) has not been used for any stream. The most likely reason is either wrong type (e.g. a video option with no video streams) or that it is a private option of some decoder which was not actually used for any stream.\nStream mapping:\n  Stream #0:0 -> #0:0 (rawvideo (native) -> av1 (libsvtav1))\nPress [q] to stop, [?] for help\nSvt[info]: -------------------------------------------\nSvt[info]: SVT [version]:\tSVT-AV1 Encoder Lib v3.1.0-19-g6ecfe8ec\nSvt[info]: SVT [build]  :\tGCC 15.2.0\t 64 bit\nSvt[info]: LIB Build date: Aug 17 2025 11:37:13\nSvt[info]: -------------------------------------------\n[libsvtav1 @ 0000020824b7c0c0] Specified chroma sample location center is unsupported on the AV1 bit stream level. Usage of a container that allows passing this information - such as Matroska - is recommended.\nSvt[info]: Level of Parallelism: 5\nSvt[info]: Number of PPCS 93\nSvt[info]: [asm level on system : up to avx2]\nSvt[info]: [asm level selected : up to avx2]\nSvt[info]: -------------------------------------------\nSvt[info]: SVT [config]: main profile\ttier (auto)\tlevel (auto)\nSvt[info]: SVT [config]: width / height / fps numerator / fps denominator \t\t: 1920 / 1080 / 50 / 1\nSvt[info]: SVT [config]: bit-depth / color format \t\t\t\t\t: 8 / YUV420\nSvt[info]: SVT [config]: preset / tune / pred struct \t\t\t\t\t: 4 / PSNR / random access\nSvt[info]: SVT [config]: gop size / mini-gop size / key-frame type \t\t\t: 321 / 16 / key frame\nSvt[info]: SVT [config]: BRC mode / target bitrate (kbps)\t\t\t\t: VBR / 1000 \nSvt[info]: SVT [config]: AQ mode / Variance Boost \t\t\t\t\t: 2 / 0\nSvt[info]: SVT [config]: sharpness / luminance-based QP bias \t\t\t\t: 0 / 0\nSvt[info]: SVT [config]: QP scale compress strength \t\t\t\t\t: 0\nSvt[info]: -------------------------------------------\nOutput #0, matroska, to 'C:\\Users\\Peter\\Desktop\\stuff\\MIUN\\quantitative_research\\video_compression\\compressed_videos\\HEVC_CLASS_B\\av1\\1\\Cactus_1920x1080_50_av1.mkv':\n  Metadata:\n    encoder         : Lavf62.3.100\n  Stream #0:0: Video: av1 (AV01 / 0x31305641), yuv420p(tv, progressive), 1920x1080, q=2-31, 1000 kb/s, 50 fps, 1k tbn\n    Metadata:\n      encoder         : Lavc62.11.100 libsvtav1\n    Side data:\n      cpb: bitrate max/min/avg: 0/0/1000000 buffer size: 1000000 vbv_delay: N/A\nframe=    0 fps=0.0 q=0.0 size=       0KiB time=N/A bitrate=N/A speed=N/A elapsed=0:00:05.08    \nframe=    0 fps=0.0 q=0.0 size=       0KiB time=N/A bitrate=N/A speed=N/A elapsed=0:00:05.65    \nframe=    0 fps=0.0 q=0.0 size=       0KiB time=N/A bitrate=N/A speed=N/A elapsed=0:00:06.22    \nframe=    0 fps=0.0 q=0.0 size=       0KiB time=N/A bitrate=N/A speed=N/A elapsed=0:00:06.95    \nframe=    0 fps=0.0 q=0.0 size=       0KiB time=N/A bitrate=N/A speed=N/A elapsed=0:00:07.46    \nframe=    0 fps=0.0 q=0.0 size=       0KiB time=N/A bitrate=N/A speed=N/A elapsed=0:00:07.98    \nframe=    0 fps=0.0 q=0.0 size=       0KiB time=N/A bitrate=N/A speed=N/A elapsed=0:00:08.50    \nframe=    0 fps=0.0 q=0.0 size=       0KiB time=N/A bitrate=N/A speed=N/A elapsed=0:00:09.00    \nframe=    0 fps=0.0 q=0.0 size=       0KiB time=N/A bitrate=N/A speed=N/A elapsed=0:00:09.53    \nframe=    0 fps=0.0 q=0.0 size=       0KiB time=N/A bitrate=N/A speed=N/A elapsed=0:00:10.04    \nframe=    0 fps=0.0 q=0.0 size=       0KiB time=N/A bitrate=N/A speed=N/A elapsed=0:00:10.55    \nframe=    0 fps=0.0 q=0.0 size=       0KiB time=N/A bitrate=N/A speed=N/A elapsed=0:00:11.06    \nframe=    0 fps=0.0 q=0.0 size=       0KiB time=N/A bitrate=N/A speed=N/A elapsed=0:00:11.59    \nframe=    0 fps=0.0 q=0.0 size=       0KiB time=N/A bitrate=N/A speed=N/A elapsed=0:00:12.10    \nframe=    0 fps=0.0 q=0.0 size=       0KiB time=N/A bitrate=N/A speed=N/A elapsed=0:00:12.62    \nframe=    0 fps=0.0 q=0.0 size=       0KiB time=N/A bitrate=N/A speed=N/A elapsed=0:00:13.13    \nframe=    0 fps=0.0 q=0.0 size=       0KiB time=N/A bitrate=N/A speed=N/A elapsed=0:00:13.65    \nframe=    0 fps=0.0 q=0.0 size=       0KiB time=N/A bitrate=N/A speed=N/A elapsed=0:00:14.17    \nframe=    0 fps=0.0 q=0.0 size=       0KiB time=N/A bitrate=N/A speed=N/A elapsed=0:00:14.67    \nframe=    0 fps=0.0 q=0.0 size=       0KiB time=N/A bitrate=N/A speed=N/A elapsed=0:00:15.20    \nframe=    0 fps=0.0 q=0.0 size=       0KiB time=N/A bitrate=N/A speed=N/A elapsed=0:00:15.71    \nframe=    0 fps=0.0 q=0.0 size=       0KiB time=N/A bitrate=N/A speed=N/A elapsed=0:00:16.22    \nframe=    0 fps=0.0 q=0.0 size=       0KiB time=N/A bitrate=N/A speed=N/A elapsed=0:00:16.74    \nframe=    1 fps=0.1 q=38.0 size=       1KiB time=00:00:00.00 bitrate=N/A speed=   0x elapsed=0:00:17.26    \nframe=    1 fps=0.1 q=38.0 size=       1KiB time=00:00:00.00 bitrate=N/A speed=   0x elapsed=0:00:17.77    \nframe=    1 fps=0.1 q=38.0 size=       1KiB time=00:00:00.00 bitrate=N/A speed=   0x elapsed=0:00:18.29    \nframe=    1 fps=0.1 q=38.0 size=       1KiB time=00:00:00.00 bitrate=N/A speed=   0x elapsed=0:00:18.80    \nframe=    1 fps=0.1 q=38.0 size=       1KiB time=00:00:00.00 bitrate=N/A speed=   0x elapsed=0:00:19.32    \nframe=    1 fps=0.1 q=38.0 size=       1KiB time=00:00:00.00 bitrate=N/A speed=   0x elapsed=0:00:19.83    \nframe=    1 fps=0.0 q=38.0 size=       1KiB time=00:00:00.00 bitrate=N/A speed=   0x elapsed=0:00:20.34    \nframe=    2 fps=0.1 q=63.0 size=       1KiB time=00:00:00.02 bitrate= 224.8kbits/s speed=0.000958x elapsed=0:00:20.87    \nframe=    4 fps=0.2 q=63.0 size=       1KiB time=00:00:00.06 bitrate=  74.9kbits/s speed=0.00281x elapsed=0:00:21.38    \nframe=    7 fps=0.3 q=59.0 size=       1KiB time=00:00:00.12 bitrate=  37.5kbits/s speed=0.00548x elapsed=0:00:21.89    \nframe=   10 fps=0.4 q=58.0 size=       1KiB time=00:00:00.18 bitrate=  25.0kbits/s speed=0.00803x elapsed=0:00:22.42    \nframe=   12 fps=0.5 q=58.0 size=       1KiB time=00:00:00.22 bitrate=  20.4kbits/s speed=0.00959x elapsed=0:00:22.93    \nframe=   13 fps=0.6 q=58.0 size=       1KiB time=00:00:00.24 bitrate=  18.7kbits/s speed=0.0102x elapsed=0:00:23.44    \nframe=   14 fps=0.6 q=57.0 size=       1KiB time=00:00:00.26 bitrate=  17.3kbits/s speed=0.0108x elapsed=0:00:23.97    \nframe=   14 fps=0.6 q=57.0 size=       1KiB time=00:00:00.26 bitrate=  17.3kbits/s speed=0.0106x elapsed=0:00:24.48    \nframe=   15 fps=0.6 q=59.0 size=       1KiB time=00:00:00.28 bitrate=  16.1kbits/s speed=0.0112x elapsed=0:00:25.00    \nframe=   16 fps=0.6 q=57.0 size=       1KiB time=00:00:00.30 bitrate=  15.0kbits/s speed=0.0118x elapsed=0:00:25.52    \nframe=   16 fps=0.6 q=57.0 size=       1KiB time=00:00:00.30 bitrate=  15.0kbits/s speed=0.0115x elapsed=0:00:26.03    \nframe=   18 fps=0.7 q=55.0 size=       1KiB time=00:00:00.34 bitrate=  13.2kbits/s speed=0.0128x elapsed=0:00:26.56    \nframe=   19 fps=0.7 q=55.0 size=       1KiB time=00:00:00.36 bitrate=  12.5kbits/s speed=0.0133x elapsed=0:00:27.07    \nframe=   21 fps=0.8 q=58.0 size=       1KiB time=00:00:00.40 bitrate=  11.2kbits/s speed=0.0145x elapsed=0:00:27.59    \nframe=   22 fps=0.8 q=53.0 size=       1KiB time=00:00:00.42 bitrate=  10.7kbits/s speed=0.0149x elapsed=0:00:28.10    \nframe=   23 fps=0.8 q=56.0 size=       1KiB time=00:00:00.44 bitrate=  10.2kbits/s speed=0.0154x elapsed=0:00:28.62    \nframe=   25 fps=0.9 q=55.0 size=       1KiB time=00:00:00.48 bitrate=   9.4kbits/s speed=0.0165x elapsed=0:00:29.13    \nframe=   26 fps=0.9 q=53.0 size=       1KiB time=00:00:00.50 bitrate=   9.0kbits/s speed=0.0169x elapsed=0:00:29.64    \nframe=   29 fps=1.0 q=57.0 size=       1KiB time=00:00:00.56 bitrate=   8.0kbits/s speed=0.0186x elapsed=0:00:30.17    \nframe=   30 fps=1.0 q=53.0 size=       1KiB time=00:00:00.58 bitrate=   7.8kbits/s speed=0.0189x elapsed=0:00:30.70    \nframe=   31 fps=1.0 q=56.0 size=       1KiB time=00:00:00.60 bitrate=   7.5kbits/s speed=0.0192x elapsed=0:00:31.20    \nframe=   33 fps=1.0 q=48.0 size=       1KiB time=00:00:00.64 bitrate=   7.0kbits/s speed=0.0202x elapsed=0:00:31.72    \nframe=   34 fps=1.1 q=54.0 size=       1KiB time=00:00:00.66 bitrate=   6.8kbits/s speed=0.0205x elapsed=0:00:32.23    \nframe=   35 fps=1.1 q=56.0 size=       1KiB time=00:00:00.68 bitrate=   6.6kbits/s speed=0.0208x elapsed=0:00:32.76    \nframe=   36 fps=1.1 q=52.0 size=       1KiB time=00:00:00.70 bitrate=   6.4kbits/s speed=0.021x elapsed=0:00:33.26    \nframe=   37 fps=1.1 q=58.0 size=       1KiB time=00:00:00.72 bitrate=   6.2kbits/s speed=0.0213x elapsed=0:00:33.78    \nframe=   38 fps=1.1 q=53.0 size=       1KiB time=00:00:00.74 bitrate=   6.1kbits/s speed=0.0216x elapsed=0:00:34.30    \nframe=   40 fps=1.1 q=53.0 size=       1KiB time=00:00:00.78 bitrate=   5.8kbits/s speed=0.0224x elapsed=0:00:34.82    \nframe=   42 fps=1.2 q=52.0 size=       1KiB time=00:00:00.82 bitrate=   5.5kbits/s speed=0.0232x elapsed=0:00:35.39    \nframe=   45 fps=1.3 q=58.0 size=       1KiB time=00:00:00.86 bitrate=   5.2kbits/s speed=0.0239x elapsed=0:00:35.93    \nframe=   46 fps=1.3 q=53.0 size=       1KiB time=00:00:00.88 bitrate=   5.1kbits/s speed=0.0241x elapsed=0:00:36.57    \nframe=   47 fps=1.3 q=55.0 size=       1KiB time=00:00:00.92 bitrate=   4.9kbits/s speed=0.0248x elapsed=0:00:37.17    \nframe=   49 fps=1.3 q=43.0 size=       1KiB time=00:00:00.96 bitrate=   4.7kbits/s speed=0.0255x elapsed=0:00:37.69    \nframe=   49 fps=1.3 q=43.0 size=       1KiB time=00:00:00.96 bitrate=   4.7kbits/s speed=0.0251x elapsed=0:00:38.21    \nframe=   50 fps=1.3 q=54.0 size=       1KiB time=00:00:00.98 bitrate=   4.6kbits/s speed=0.0253x elapsed=0:00:38.73    \nframe=   52 fps=1.3 q=52.0 size=       1KiB time=00:00:01.02 bitrate=   4.4kbits/s speed=0.026x elapsed=0:00:39.23    \nframe=   53 fps=1.3 q=57.0 size=       1KiB time=00:00:01.04 bitrate=   4.3kbits/s speed=0.0262x elapsed=0:00:39.75    \nframe=   55 fps=1.4 q=56.0 size=       1KiB time=00:00:01.08 bitrate=   4.2kbits/s speed=0.0268x elapsed=0:00:40.27    \nframe=   56 fps=1.4 q=53.0 size=       1KiB time=00:00:01.10 bitrate=   4.1kbits/s speed=0.027x elapsed=0:00:40.79    \nframe=   58 fps=1.4 q=53.0 size=       1KiB time=00:00:01.14 bitrate=   3.9kbits/s speed=0.0276x elapsed=0:00:41.30    \nframe=   59 fps=1.4 q=56.0 size=       1KiB time=00:00:01.16 bitrate=   3.9kbits/s speed=0.0277x elapsed=0:00:41.82    \nframe=   61 fps=1.4 q=57.0 size=       1KiB time=00:00:01.20 bitrate=   3.7kbits/s speed=0.0283x elapsed=0:00:42.34    \nframe=   63 fps=1.5 q=55.0 size=       1KiB time=00:00:01.24 bitrate=   3.6kbits/s speed=0.0289x elapsed=0:00:42.85    \nframe=   65 fps=1.5 q=41.0 size=       1KiB time=00:00:01.28 bitrate=   3.5kbits/s speed=0.0295x elapsed=0:00:43.37    \nframe=   67 fps=1.5 q=54.0 size=       1KiB time=00:00:01.32 bitrate=   3.4kbits/s speed=0.0301x elapsed=0:00:43.88    \nframe=   68 fps=1.5 q=46.0 size=       1KiB time=00:00:01.34 bitrate=   3.4kbits/s speed=0.0302x elapsed=0:00:44.40    \nframe=   69 fps=1.5 q=57.0 size=       1KiB time=00:00:01.36 bitrate=   3.3kbits/s speed=0.0303x elapsed=0:00:44.91    \nframe=   71 fps=1.6 q=55.0 size=       1KiB time=00:00:01.40 bitrate=   3.2kbits/s speed=0.0308x elapsed=0:00:45.43    \nframe=   72 fps=1.6 q=53.0 size=       1KiB time=00:00:01.42 bitrate=   3.2kbits/s speed=0.0309x elapsed=0:00:45.94    \nframe=   74 fps=1.6 q=52.0 size=       1KiB time=00:00:01.46 bitrate=   3.1kbits/s speed=0.0314x elapsed=0:00:46.46    \nframe=   75 fps=1.6 q=56.0 size=       1KiB time=00:00:01.48 bitrate=   3.0kbits/s speed=0.0315x elapsed=0:00:46.97    \nframe=   76 fps=1.6 q=52.0 size=       1KiB time=00:00:01.50 bitrate=   3.0kbits/s speed=0.0316x elapsed=0:00:47.49    \nframe=   77 fps=1.6 q=57.0 size=       1KiB time=00:00:01.52 bitrate=   3.0kbits/s speed=0.0317x elapsed=0:00:48.00    \nframe=   80 fps=1.6 q=53.0 size=       1KiB time=00:00:01.58 bitrate=   2.8kbits/s speed=0.0326x elapsed=0:00:48.53    \nframe=   82 fps=1.7 q=53.0 size=       1KiB time=00:00:01.62 bitrate=   2.8kbits/s speed=0.033x elapsed=0:00:49.03    \nframe=   82 fps=1.7 q=53.0 size=       1KiB time=00:00:01.62 bitrate=   2.8kbits/s speed=0.0327x elapsed=0:00:49.56    \nframe=   84 fps=1.7 q=52.0 size=       1KiB time=00:00:01.66 bitrate=   2.7kbits/s speed=0.0332x elapsed=0:00:50.07    \nframe=   85 fps=1.7 q=57.0 size=       1KiB time=00:00:01.68 bitrate=   2.7kbits/s speed=0.0332x elapsed=0:00:50.59    \nframe=   87 fps=1.7 q=55.0 size=       1KiB time=00:00:01.72 bitrate=   2.6kbits/s speed=0.0337x elapsed=0:00:51.10    \nframe=   89 fps=1.7 q=53.0 size=       1KiB time=00:00:01.76 bitrate=   2.6kbits/s speed=0.0341x elapsed=0:00:51.62    \nframe=   90 fps=1.7 q=52.0 size=       1KiB time=00:00:01.78 bitrate=   2.5kbits/s speed=0.0341x elapsed=0:00:52.13    \nframe=   91 fps=1.7 q=56.0 size=       1KiB time=00:00:01.80 bitrate=   2.5kbits/s speed=0.0342x elapsed=0:00:52.65    \nframe=   94 fps=1.8 q=53.0 size=       1KiB time=00:00:01.86 bitrate=   2.4kbits/s speed=0.035x elapsed=0:00:53.17    \nframe=   95 fps=1.8 q=55.0 size=       1KiB time=00:00:01.88 bitrate=   2.4kbits/s speed=0.035x elapsed=0:00:53.70    \nframe=   97 fps=1.8 q=39.0 size=       1KiB time=00:00:01.92 bitrate=   2.3kbits/s speed=0.0354x elapsed=0:00:54.21    \nframe=   98 fps=1.8 q=53.0 size=       1KiB time=00:00:01.94 bitrate=   2.3kbits/s speed=0.0354x elapsed=0:00:54.73    \nframe=   99 fps=1.8 q=56.0 size=       1KiB time=00:00:01.96 bitrate=   2.3kbits/s speed=0.0355x elapsed=0:00:55.25    \nframe=  101 fps=1.8 q=56.0 size=       1KiB time=00:00:02.00 bitrate=   2.2kbits/s speed=0.0359x elapsed=0:00:55.75    \nframe=  102 fps=1.8 q=53.0 size=       1KiB time=00:00:02.02 bitrate=   2.2kbits/s speed=0.0359x elapsed=0:00:56.28    \nframe=  104 fps=1.8 q=54.0 size=       1KiB time=00:00:02.06 bitrate=   2.2kbits/s speed=0.0363x elapsed=0:00:56.79    \nframe=  105 fps=1.8 q=52.0 size=       1KiB time=00:00:02.08 bitrate=   2.2kbits/s speed=0.0363x elapsed=0:00:57.31    \nframe=  107 fps=1.9 q=57.0 size=       1KiB time=00:00:02.12 bitrate=   2.1kbits/s speed=0.0367x elapsed=0:00:57.83    \nframe=  109 fps=1.9 q=55.0 size=       1KiB time=00:00:02.16 bitrate=   2.1kbits/s speed=0.037x elapsed=0:00:58.34    \nframe=  111 fps=1.9 q=56.0 size=       1KiB time=00:00:02.20 bitrate=   2.0kbits/s speed=0.0374x elapsed=0:00:58.86    \nframe=  112 fps=1.9 q=52.0 size=       1KiB time=00:00:02.22 bitrate=   2.0kbits/s speed=0.0374x elapsed=0:00:59.38    \nframe=  114 fps=1.9 q=52.0 size=       1KiB time=00:00:02.26 bitrate=   2.0kbits/s speed=0.0377x elapsed=0:00:59.89    \nframe=  115 fps=1.9 q=56.0 size=       1KiB time=00:00:02.28 bitrate=   2.0kbits/s speed=0.0377x elapsed=0:01:00.41    \nframe=  116 fps=1.9 q=50.0 size=       1KiB time=00:00:02.30 bitrate=   2.0kbits/s speed=0.0377x elapsed=0:01:00.93    \nframe=  117 fps=1.9 q=56.0 size=       1KiB time=00:00:02.32 bitrate=   1.9kbits/s speed=0.0378x elapsed=0:01:01.45    \nframe=  119 fps=1.9 q=55.0 size=       1KiB time=00:00:02.36 bitrate=   1.9kbits/s speed=0.0381x elapsed=0:01:01.97    \nframe=  120 fps=1.9 q=51.0 size=       1KiB time=00:00:02.38 bitrate=   1.9kbits/s speed=0.0381x elapsed=0:01:02.47    \nframe=  122 fps=1.9 q=50.0 size=       1KiB time=00:00:02.42 bitrate=   1.9kbits/s speed=0.0384x elapsed=0:01:02.99    \nframe=  123 fps=1.9 q=53.0 size=       1KiB time=00:00:02.44 bitrate=   1.8kbits/s speed=0.0384x elapsed=0:01:03.51    \nframe=  124 fps=1.9 q=49.0 size=       1KiB time=00:00:02.46 bitrate=   1.8kbits/s speed=0.0384x elapsed=0:01:04.03    \nframe=  125 fps=1.9 q=56.0 size=       1KiB time=00:00:02.48 bitrate=   1.8kbits/s speed=0.0384x elapsed=0:01:04.54    \nframe=  127 fps=2.0 q=54.0 size=       1KiB time=00:00:02.52 bitrate=   1.8kbits/s speed=0.0387x elapsed=0:01:05.06    \nframe=  127 fps=1.9 q=54.0 size=       1KiB time=00:00:02.52 bitrate=   1.8kbits/s speed=0.0384x elapsed=0:01:05.57    \nframe=  128 fps=1.9 q=52.0 size=       1KiB time=00:00:02.54 bitrate=   1.8kbits/s speed=0.0384x elapsed=0:01:06.08    \nframe=  129 fps=1.9 q=40.0 size=       1KiB time=00:00:02.56 bitrate=   1.8kbits/s speed=0.0384x elapsed=0:01:06.59    \nframe=  130 fps=1.9 q=51.0 size=       1KiB time=00:00:02.58 bitrate=   1.7kbits/s speed=0.0384x elapsed=0:01:07.12    \nframe=  132 fps=2.0 q=51.0 size=       1KiB time=00:00:02.62 bitrate=   1.7kbits/s speed=0.0387x elapsed=0:01:07.63    \nframe=  134 fps=2.0 q=52.0 size=       1KiB time=00:00:02.66 bitrate=   1.7kbits/s speed=0.039x elapsed=0:01:08.14    \nframe=  135 fps=2.0 q=56.0 size=       1KiB time=00:00:02.68 bitrate=   1.7kbits/s speed=0.039x elapsed=0:01:08.66    \nframe=  136 fps=2.0 q=53.0 size=       1KiB time=00:00:02.70 bitrate=   1.7kbits/s speed=0.039x elapsed=0:01:09.17    \nframe=  138 fps=2.0 q=53.0 size=       1KiB time=00:00:02.74 bitrate=   1.6kbits/s speed=0.0393x elapsed=0:01:09.69    \nframe=  140 fps=2.0 q=52.0 size=       1KiB time=00:00:02.78 bitrate=   1.6kbits/s speed=0.0396x elapsed=0:01:10.20    \nframe=  142 fps=2.0 q=53.0 size=       1KiB time=00:00:02.82 bitrate=   1.6kbits/s speed=0.0398x elapsed=0:01:10.87    \nframe=  144 fps=2.0 q=52.0 size=       1KiB time=00:00:02.86 bitrate=   1.6kbits/s speed=0.04x elapsed=0:01:11.41    \nframe=  146 fps=2.0 q=53.0 size=       1KiB time=00:00:02.88 bitrate=   1.6kbits/s speed=0.04x elapsed=0:01:12.00    \nframe=  146 fps=2.0 q=53.0 size=       1KiB time=00:00:02.90 bitrate=   1.6kbits/s speed=0.0399x elapsed=0:01:12.62    \nframe=  147 fps=2.0 q=56.0 size=       1KiB time=00:00:02.92 bitrate=   1.5kbits/s speed=0.0399x elapsed=0:01:13.25    \nframe=  148 fps=2.0 q=53.0 size=       1KiB time=00:00:02.94 bitrate=   1.5kbits/s speed=0.0398x elapsed=0:01:13.80    \nframe=  150 fps=2.0 q=52.0 size=       1KiB time=00:00:02.98 bitrate=   1.5kbits/s speed=0.0401x elapsed=0:01:14.35    \nframe=  151 fps=2.0 q=55.0 size=       1KiB time=00:00:03.00 bitrate=   1.5kbits/s speed=0.0401x elapsed=0:01:14.86    \nframe=  152 fps=2.0 q=52.0 size=       1KiB time=00:00:03.02 bitrate=   1.5kbits/s speed=0.0401x elapsed=0:01:15.39    \nframe=  152 fps=2.0 q=52.0 size=       1KiB time=00:00:03.02 bitrate=   1.5kbits/s speed=0.0398x elapsed=0:01:15.89    \nframe=  154 fps=2.0 q=53.0 size=       1KiB time=00:00:03.06 bitrate=   1.5kbits/s speed=0.04x elapsed=0:01:16.41    \nframe=  155 fps=2.0 q=55.0 size=       1KiB time=00:00:03.08 bitrate=   1.5kbits/s speed=0.04x elapsed=0:01:16.94    \nframe=  157 fps=2.0 q=54.0 size=       1KiB time=00:00:03.12 bitrate=   1.4kbits/s speed=0.0403x elapsed=0:01:17.44    \nframe=  159 fps=2.0 q=55.0 size=       1KiB time=00:00:03.16 bitrate=   1.4kbits/s speed=0.0405x elapsed=0:01:17.97    \nframe=  160 fps=2.0 q=53.0 size=       1KiB time=00:00:03.18 bitrate=   1.4kbits/s speed=0.0405x elapsed=0:01:18.48    \nframe=  162 fps=2.1 q=55.0 size=       1KiB time=00:00:03.22 bitrate=   1.4kbits/s speed=0.0408x elapsed=0:01:19.01    \nframe=  163 fps=2.0 q=57.0 size=       1KiB time=00:00:03.24 bitrate=   1.4kbits/s speed=0.0407x elapsed=0:01:19.53    \nframe=  166 fps=2.1 q=55.0 size=       1KiB time=00:00:03.30 bitrate=   1.4kbits/s speed=0.0412x elapsed=0:01:20.04    \nframe=  167 fps=2.1 q=57.0 size=       1KiB time=00:00:03.32 bitrate=   1.4kbits/s speed=0.0412x elapsed=0:01:20.56    \nframe=  167 fps=2.1 q=57.0 size=       1KiB time=00:00:03.32 bitrate=   1.4kbits/s speed=0.041x elapsed=0:01:21.07    \nframe=  171 fps=2.1 q=56.0 size=       1KiB time=00:00:03.40 bitrate=   1.3kbits/s speed=0.0417x elapsed=0:01:21.58    \nframe=  172 fps=2.1 q=55.0 size=       1KiB time=00:00:03.42 bitrate=   1.3kbits/s speed=0.0416x elapsed=0:01:22.11    \nframe=  175 fps=2.1 q=54.0 size=       1KiB time=00:00:03.48 bitrate=   1.3kbits/s speed=0.0421x elapsed=0:01:22.63    \nframe=  176 fps=2.1 q=54.0 size=       1KiB time=00:00:03.50 bitrate=   1.3kbits/s speed=0.0421x elapsed=0:01:23.15    \nframe=  177 fps=2.1 q=39.0 size=       1KiB time=00:00:03.52 bitrate=   1.3kbits/s speed=0.0421x elapsed=0:01:23.67    \nframe=  179 fps=2.1 q=55.0 size=       1KiB time=00:00:03.56 bitrate=   1.3kbits/s speed=0.0422x elapsed=0:01:24.29    \nframe=  182 fps=2.1 q=54.0 size=       1KiB time=00:00:03.62 bitrate=   1.2kbits/s speed=0.0425x elapsed=0:01:25.09    \nframe=  183 fps=2.1 q=55.0 size=       1KiB time=00:00:03.64 bitrate=   1.2kbits/s speed=0.0425x elapsed=0:01:25.60    \nframe=  184 fps=2.1 q=54.0 size=       1KiB time=00:00:03.66 bitrate=   1.2kbits/s speed=0.0425x elapsed=0:01:26.11    \nframe=  186 fps=2.1 q=54.0 size=       1KiB time=00:00:03.70 bitrate=   1.2kbits/s speed=0.0427x elapsed=0:01:26.63    \nframe=  188 fps=2.2 q=51.0 size=       1KiB time=00:00:03.74 bitrate=   1.2kbits/s speed=0.0429x elapsed=0:01:27.14    \nframe=  189 fps=2.2 q=56.0 size=       1KiB time=00:00:03.76 bitrate=   1.2kbits/s speed=0.0429x elapsed=0:01:27.66    \nframe=  191 fps=2.2 q=56.0 size=       1KiB time=00:00:03.80 bitrate=   1.2kbits/s speed=0.0431x elapsed=0:01:28.17    \nframe=  193 fps=2.2 q=42.0 size=       1KiB time=00:00:03.84 bitrate=   1.2kbits/s speed=0.0433x elapsed=0:01:28.69    \nframe=  193 fps=2.2 q=42.0 size=       1KiB time=00:00:03.84 bitrate=   1.2kbits/s speed=0.043x elapsed=0:01:29.20    \nframe=  194 fps=2.2 q=54.0 size=       1KiB time=00:00:03.86 bitrate=   1.2kbits/s speed=0.043x elapsed=0:01:29.73    \nframe=  195 fps=2.2 q=55.0 size=       1KiB time=00:00:03.88 bitrate=   1.2kbits/s speed=0.043x elapsed=0:01:30.24    \nframe=  197 fps=2.2 q=57.0 size=       1KiB time=00:00:03.92 bitrate=   1.1kbits/s speed=0.0432x elapsed=0:01:30.75    \nframe=  199 fps=2.2 q=56.0 size=       1KiB time=00:00:03.96 bitrate=   1.1kbits/s speed=0.0434x elapsed=0:01:31.28    \nframe=  199 fps=2.2 q=56.0 size=       1KiB time=00:00:03.96 bitrate=   1.1kbits/s speed=0.0431x elapsed=0:01:31.80    \nframe=  201 fps=2.2 q=49.0 size=       1KiB time=00:00:04.00 bitrate=   1.1kbits/s speed=0.0433x elapsed=0:01:32.32    \nframe=  203 fps=2.2 q=55.0 size=       1KiB time=00:00:04.04 bitrate=   1.1kbits/s speed=0.0435x elapsed=0:01:32.83    \nframe=  204 fps=2.2 q=54.0 size=       1KiB time=00:00:04.06 bitrate=   1.1kbits/s speed=0.0435x elapsed=0:01:33.34    \nframe=  207 fps=2.2 q=55.0 size=       1KiB time=00:00:04.12 bitrate=   1.1kbits/s speed=0.0439x elapsed=0:01:33.86    \nframe=  209 fps=2.2 q=42.0 size=       1KiB time=00:00:04.16 bitrate=   1.1kbits/s speed=0.0441x elapsed=0:01:34.38    \nframe=  211 fps=2.2 q=56.0 size=       1KiB time=00:00:04.20 bitrate=   1.1kbits/s speed=0.0443x elapsed=0:01:34.90    \nframe=  213 fps=2.2 q=56.0 size=       1KiB time=00:00:04.24 bitrate=   1.1kbits/s speed=0.0444x elapsed=0:01:35.43    \nframe=  214 fps=2.2 q=56.0 size=       1KiB time=00:00:04.26 bitrate=   1.1kbits/s speed=0.0444x elapsed=0:01:35.95    \nframe=  215 fps=2.2 q=56.0 size=       1KiB time=00:00:04.28 bitrate=   1.1kbits/s speed=0.0444x elapsed=0:01:36.46    \nframe=  215 fps=2.2 q=56.0 size=       1KiB time=00:00:04.28 bitrate=   1.1kbits/s speed=0.0441x elapsed=0:01:36.97    \nframe=  216 fps=2.2 q=56.0 size=       1KiB time=00:00:04.30 bitrate=   1.0kbits/s speed=0.0441x elapsed=0:01:37.49    \nframe=  218 fps=2.2 q=56.0 size=       1KiB time=00:00:04.34 bitrate=   1.0kbits/s speed=0.0443x elapsed=0:01:38.01    \nframe=  220 fps=2.2 q=54.0 size=       1KiB time=00:00:04.38 bitrate=   1.0kbits/s speed=0.0445x elapsed=0:01:38.53    \nframe=  222 fps=2.2 q=56.0 size=       1KiB time=00:00:04.42 bitrate=   1.0kbits/s speed=0.0446x elapsed=0:01:39.03    \nframe=  225 fps=2.3 q=42.0 size=       1KiB time=00:00:04.48 bitrate=   1.0kbits/s speed=0.045x elapsed=0:01:39.56    \nframe=  226 fps=2.3 q=56.0 size=       1KiB time=00:00:04.50 bitrate=   1.0kbits/s speed=0.045x elapsed=0:01:40.07    \nframe=  228 fps=2.3 q=56.0 size=       1KiB time=00:00:04.54 bitrate=   1.0kbits/s speed=0.0451x elapsed=0:01:40.58    \nframe=  229 fps=2.3 q=57.0 size=       1KiB time=00:00:04.56 bitrate=   1.0kbits/s speed=0.0451x elapsed=0:01:41.10    \nframe=  230 fps=2.3 q=56.0 size=       1KiB time=00:00:04.58 bitrate=   1.0kbits/s speed=0.0451x elapsed=0:01:41.62    \nframe=  231 fps=2.3 q=56.0 size=       1KiB time=00:00:04.60 bitrate=   1.0kbits/s speed=0.045x elapsed=0:01:42.14    \nframe=  233 fps=2.3 q=52.0 size=       1KiB time=00:00:04.64 bitrate=   1.0kbits/s speed=0.0452x elapsed=0:01:42.64    \nframe=  235 fps=2.3 q=56.0 size=       1KiB time=00:00:04.68 bitrate=   1.0kbits/s speed=0.0454x elapsed=0:01:43.16    \nframe=  236 fps=2.3 q=56.0 size=       1KiB time=00:00:04.70 bitrate=   1.0kbits/s speed=0.0453x elapsed=0:01:43.68    \nframe=  239 fps=2.3 q=55.0 size=       1KiB time=00:00:04.76 bitrate=   0.9kbits/s speed=0.0457x elapsed=0:01:44.20    \nframe=  240 fps=2.3 q=56.0 size=       1KiB time=00:00:04.78 bitrate=   0.9kbits/s speed=0.0457x elapsed=0:01:44.70    \nframe=  241 fps=2.3 q=43.0 size=       1KiB time=00:00:04.80 bitrate=   0.9kbits/s speed=0.0456x elapsed=0:01:45.27    \nframe=  243 fps=2.3 q=57.0 size=       1KiB time=00:00:04.84 bitrate=   0.9kbits/s speed=0.0457x elapsed=0:01:45.79    \nframe=  245 fps=2.3 q=57.0 size=       1KiB time=00:00:04.88 bitrate=   0.9kbits/s speed=0.0459x elapsed=0:01:46.31    \nframe=  248 fps=2.3 q=57.0 size=       1KiB time=00:00:04.94 bitrate=   0.9kbits/s speed=0.0462x elapsed=0:01:46.88    \nframe=  250 fps=2.3 q=57.0 size=       1KiB time=00:00:04.96 bitrate=   0.9kbits/s speed=0.0462x elapsed=0:01:47.40    \nframe=  251 fps=2.3 q=57.0 size=       1KiB time=00:00:05.00 bitrate=   0.9kbits/s speed=0.0463x elapsed=0:01:47.93    \nframe=  253 fps=2.3 q=57.0 size=     512KiB time=00:00:05.02 bitrate= 835.5kbits/s speed=0.0463x elapsed=0:01:48.47    \nframe=  255 fps=2.3 q=55.0 size=     512KiB time=00:00:05.08 bitrate= 825.7kbits/s speed=0.0466x elapsed=0:01:49.10    \nframe=  257 fps=2.3 q=44.0 size=     512KiB time=00:00:05.12 bitrate= 819.2kbits/s speed=0.0467x elapsed=0:01:49.61    \nframe=  258 fps=2.3 q=56.0 size=     512KiB time=00:00:05.14 bitrate= 816.0kbits/s speed=0.0466x elapsed=0:01:50.21    \nframe=  259 fps=2.3 q=56.0 size=     512KiB time=00:00:05.16 bitrate= 812.8kbits/s speed=0.0466x elapsed=0:01:50.82    \nframe=  261 fps=2.3 q=57.0 size=     512KiB time=00:00:05.20 bitrate= 806.6kbits/s speed=0.0467x elapsed=0:01:51.34    \nframe=  262 fps=2.3 q=56.0 size=     512KiB time=00:00:05.22 bitrate= 803.5kbits/s speed=0.0467x elapsed=0:01:51.84    \nframe=  263 fps=2.3 q=56.0 size=     512KiB time=00:00:05.24 bitrate= 800.4kbits/s speed=0.0466x elapsed=0:01:52.36    \nframe=  265 fps=2.3 q=53.0 size=     512KiB time=00:00:05.28 bitrate= 794.4kbits/s speed=0.0468x elapsed=0:01:52.88    \nframe=  267 fps=2.4 q=57.0 size=     512KiB time=00:00:05.32 bitrate= 788.4kbits/s speed=0.0469x elapsed=0:01:53.39    \nframe=  269 fps=2.4 q=57.0 size=     512KiB time=00:00:05.36 bitrate= 782.5kbits/s speed=0.0471x elapsed=0:01:53.91    \nframe=  271 fps=2.4 q=55.0 size=     512KiB time=00:00:05.40 bitrate= 776.7kbits/s speed=0.0472x elapsed=0:01:54.43    \nframe=  274 fps=2.4 q=57.0 size=     512KiB time=00:00:05.46 bitrate= 768.2kbits/s speed=0.0475x elapsed=0:01:54.94    \nframe=  276 fps=2.4 q=57.0 size=     512KiB time=00:00:05.50 bitrate= 762.6kbits/s speed=0.0476x elapsed=0:01:55.47    \nframe=  279 fps=2.4 q=57.0 size=     512KiB time=00:00:05.56 bitrate= 754.4kbits/s speed=0.0479x elapsed=0:01:55.97    \nframe=  280 fps=2.4 q=57.0 size=     512KiB time=00:00:05.58 bitrate= 751.7kbits/s speed=0.0479x elapsed=0:01:56.48    \nframe=  283 fps=2.4 q=57.0 size=     512KiB time=00:00:05.64 bitrate= 743.7kbits/s speed=0.0482x elapsed=0:01:57.00    \nframe=  285 fps=2.4 q=57.0 size=     512KiB time=00:00:05.68 bitrate= 738.4kbits/s speed=0.0483x elapsed=0:01:57.52    \nframe=  287 fps=2.4 q=56.0 size=     512KiB time=00:00:05.72 bitrate= 733.3kbits/s speed=0.0485x elapsed=0:01:58.04    \nframe=  287 fps=2.4 q=56.0 size=     512KiB time=00:00:05.72 bitrate= 733.3kbits/s speed=0.0482x elapsed=0:01:58.56    \nframe=  291 fps=2.4 q=57.0 size=     512KiB time=00:00:05.80 bitrate= 723.2kbits/s speed=0.0487x elapsed=0:01:59.07    \nframe=  291 fps=2.4 q=57.0 size=     512KiB time=00:00:05.80 bitrate= 723.2kbits/s speed=0.0485x elapsed=0:01:59.58    \nframe=  293 fps=2.4 q=57.0 size=     512KiB time=00:00:05.84 bitrate= 718.2kbits/s speed=0.0486x elapsed=0:02:00.11    \nframe=  294 fps=2.4 q=56.0 size=     512KiB time=00:00:05.86 bitrate= 715.8kbits/s speed=0.0486x elapsed=0:02:00.62    \nframe=  296 fps=2.4 q=56.0 size=     512KiB time=00:00:05.90 bitrate= 710.9kbits/s speed=0.0487x elapsed=0:02:01.13    \nframe=  297 fps=2.4 q=54.0 size=     512KiB time=00:00:05.92 bitrate= 708.5kbits/s speed=0.0487x elapsed=0:02:01.64    \nframe=  299 fps=2.4 q=57.0 size=     512KiB time=00:00:05.96 bitrate= 703.7kbits/s speed=0.0488x elapsed=0:02:02.16    \nframe=  300 fps=2.4 q=57.0 size=     512KiB time=00:00:05.98 bitrate= 701.4kbits/s speed=0.0487x elapsed=0:02:02.68    \nframe=  301 fps=2.4 q=57.0 size=     512KiB time=00:00:06.00 bitrate= 699.1kbits/s speed=0.0487x elapsed=0:02:03.20    \nframe=  303 fps=2.4 q=56.0 size=     512KiB time=00:00:06.04 bitrate= 694.4kbits/s speed=0.0488x elapsed=0:02:03.71    \nframe=  306 fps=2.5 q=57.0 size=     512KiB time=00:00:06.10 bitrate= 687.6kbits/s speed=0.0491x elapsed=0:02:04.22    \nframe=  308 fps=2.5 q=57.0 size=     512KiB time=00:00:06.14 bitrate= 683.1kbits/s speed=0.0492x elapsed=0:02:04.74    \nframe=  309 fps=2.5 q=56.0 size=     512KiB time=00:00:06.16 bitrate= 680.9kbits/s speed=0.0492x elapsed=0:02:05.26    \nframe=  310 fps=2.5 q=57.0 size=     512KiB time=00:00:06.18 bitrate= 678.7kbits/s speed=0.0491x elapsed=0:02:05.77    \nframe=  312 fps=2.5 q=57.0 size=     512KiB time=00:00:06.22 bitrate= 674.3kbits/s speed=0.0493x elapsed=0:02:06.28    \nframe=  313 fps=2.5 q=55.0 size=     512KiB time=00:00:06.24 bitrate= 672.2kbits/s speed=0.0492x elapsed=0:02:06.81    \nframe=  314 fps=2.5 q=57.0 size=     512KiB time=00:00:06.26 bitrate= 670.0kbits/s speed=0.0492x elapsed=0:02:07.32    \nframe=  316 fps=2.5 q=57.0 size=     512KiB time=00:00:06.30 bitrate= 665.8kbits/s speed=0.0493x elapsed=0:02:07.83    \nframe=  316 fps=2.5 q=57.0 size=     512KiB time=00:00:06.30 bitrate= 665.8kbits/s speed=0.0491x elapsed=0:02:08.35    \nframe=  316 fps=2.5 q=57.0 size=     512KiB time=00:00:06.30 bitrate= 665.8kbits/s speed=0.0489x elapsed=0:02:08.86    \nframe=  316 fps=2.4 q=57.0 size=     512KiB time=00:00:06.30 bitrate= 665.8kbits/s speed=0.0487x elapsed=0:02:09.37    \nframe=  316 fps=2.4 q=57.0 size=     512KiB time=00:00:06.30 bitrate= 665.8kbits/s speed=0.0485x elapsed=0:02:09.90    \nframe=  316 fps=2.4 q=57.0 size=     512KiB time=00:00:06.30 bitrate= 665.8kbits/s speed=0.0483x elapsed=0:02:10.41    \nframe=  316 fps=2.4 q=57.0 size=     512KiB time=00:00:06.30 bitrate= 665.8kbits/s speed=0.0481x elapsed=0:02:10.93    \nframe=  316 fps=2.4 q=57.0 size=     512KiB time=00:00:06.30 bitrate= 665.8kbits/s speed=0.0479x elapsed=0:02:11.44    \nframe=  317 fps=2.4 q=56.0 size=     512KiB time=00:00:06.32 bitrate= 663.7kbits/s speed=0.0479x elapsed=0:02:11.96    \nframe=  317 fps=2.4 q=56.0 size=     512KiB time=00:00:06.32 bitrate= 663.7kbits/s speed=0.0477x elapsed=0:02:12.48    \nframe=  317 fps=2.4 q=56.0 size=     512KiB time=00:00:06.32 bitrate= 663.7kbits/s speed=0.0475x elapsed=0:02:13.00    \nframe=  317 fps=2.4 q=56.0 size=     512KiB time=00:00:06.32 bitrate= 663.7kbits/s speed=0.0473x elapsed=0:02:13.50    \nframe=  317 fps=2.4 q=56.0 size=     512KiB time=00:00:06.32 bitrate= 663.7kbits/s speed=0.0472x elapsed=0:02:14.02    \nframe=  317 fps=2.4 q=56.0 size=     512KiB time=00:00:06.32 bitrate= 663.7kbits/s speed=0.047x elapsed=0:02:14.53    \nframe=  318 fps=2.4 q=57.0 size=     512KiB time=00:00:06.34 bitrate= 661.6kbits/s speed=0.0469x elapsed=0:02:15.05    \nframe=  318 fps=2.3 q=57.0 size=     512KiB time=00:00:06.34 bitrate= 661.6kbits/s speed=0.0468x elapsed=0:02:15.57    \nframe=  319 fps=2.3 q=57.0 size=     512KiB time=00:00:06.36 bitrate= 659.5kbits/s speed=0.0467x elapsed=0:02:16.08    \nframe=  319 fps=2.3 q=57.0 size=     512KiB time=00:00:06.36 bitrate= 659.5kbits/s speed=0.0466x elapsed=0:02:16.60    \nframe=  321 fps=2.3 q=53.0 size=     512KiB time=00:00:06.40 bitrate= 655.4kbits/s speed=0.0467x elapsed=0:02:17.12    \nframe=  324 fps=2.4 q=59.0 size=     768KiB time=00:00:06.46 bitrate= 973.9kbits/s speed=0.0469x elapsed=0:02:17.64    \nframe=  326 fps=2.4 q=57.0 size=     768KiB time=00:00:06.50 bitrate= 967.9kbits/s speed=0.047x elapsed=0:02:18.15    \nframe=  327 fps=2.4 q=58.0 size=     768KiB time=00:00:06.52 bitrate= 964.9kbits/s speed=0.047x elapsed=0:02:18.67    \nframe=  329 fps=2.4 q=58.0 size=     768KiB time=00:00:06.56 bitrate= 959.1kbits/s speed=0.0471x elapsed=0:02:19.18    \nframe=  330 fps=2.4 q=51.0 size=     768KiB time=00:00:06.58 bitrate= 956.1kbits/s speed=0.0471x elapsed=0:02:19.69    \nframe=  331 fps=2.4 q=58.0 size=     768KiB time=00:00:06.60 bitrate= 953.3kbits/s speed=0.0471x elapsed=0:02:20.21    \nframe=  334 fps=2.4 q=57.0 size=     768KiB time=00:00:06.64 bitrate= 947.5kbits/s speed=0.0472x elapsed=0:02:20.72    \nframe=  337 fps=2.4 q=57.0 size=     768KiB time=00:00:06.70 bitrate= 939.0kbits/s speed=0.0474x elapsed=0:02:21.40    \nframe=  339 fps=2.4 q=57.0 size=     768KiB time=00:00:06.76 bitrate= 930.7kbits/s speed=0.0476x elapsed=0:02:22.12    \nframe=  341 fps=2.4 q=57.0 size=     768KiB time=00:00:06.80 bitrate= 925.2kbits/s speed=0.0476x elapsed=0:02:22.88    \nframe=  342 fps=2.4 q=57.0 size=     768KiB time=00:00:06.82 bitrate= 922.5kbits/s speed=0.0476x elapsed=0:02:23.39    \nframe=  342 fps=2.4 q=57.0 size=     768KiB time=00:00:06.82 bitrate= 922.5kbits/s speed=0.0474x elapsed=0:02:23.92    \nframe=  343 fps=2.4 q=57.0 size=     768KiB time=00:00:06.84 bitrate= 919.8kbits/s speed=0.0474x elapsed=0:02:24.42    \nframe=  346 fps=2.4 q=51.0 size=     768KiB time=00:00:06.90 bitrate= 911.8kbits/s speed=0.0476x elapsed=0:02:24.94    \nframe=  347 fps=2.4 q=57.0 size=     768KiB time=00:00:06.92 bitrate= 909.2kbits/s speed=0.0476x elapsed=0:02:25.46    \nframe=  348 fps=2.4 q=57.0 size=     768KiB time=00:00:06.94 bitrate= 906.5kbits/s speed=0.0475x elapsed=0:02:25.97    \nframe=  350 fps=2.4 q=57.0 size=     768KiB time=00:00:06.98 bitrate= 901.4kbits/s speed=0.0476x elapsed=0:02:26.49    \nframe=  352 fps=2.4 q=54.0 size=     768KiB time=00:00:07.02 bitrate= 896.2kbits/s speed=0.0478x elapsed=0:02:27.01    \nframe=  353 fps=2.4 q=55.0 size=     768KiB time=00:00:07.04 bitrate= 893.7kbits/s speed=0.0477x elapsed=0:02:27.52    \nframe=  355 fps=2.4 q=57.0 size=     768KiB time=00:00:07.08 bitrate= 888.6kbits/s speed=0.0478x elapsed=0:02:28.04    \nframe=  358 fps=2.4 q=57.0 size=     768KiB time=00:00:07.14 bitrate= 881.2kbits/s speed=0.0481x elapsed=0:02:28.56    \nframe=  360 fps=2.4 q=57.0 size=     768KiB time=00:00:07.18 bitrate= 876.2kbits/s speed=0.0482x elapsed=0:02:29.08    \nframe=  362 fps=2.4 q=51.0 size=     768KiB time=00:00:07.22 bitrate= 871.4kbits/s speed=0.0483x elapsed=0:02:29.61    \nframe=  363 fps=2.4 q=57.0 size=     768KiB time=00:00:07.24 bitrate= 869.0kbits/s speed=0.0482x elapsed=0:02:30.12    \nframe=  365 fps=2.4 q=57.0 size=     768KiB time=00:00:07.28 bitrate= 864.2kbits/s speed=0.0483x elapsed=0:02:30.64    \nframe=  366 fps=2.4 q=57.0 size=     768KiB time=00:00:07.30 bitrate= 861.8kbits/s speed=0.0483x elapsed=0:02:31.14    \nframe=  368 fps=2.4 q=55.0 size=     768KiB time=00:00:07.34 bitrate= 857.1kbits/s speed=0.0484x elapsed=0:02:31.66    \nframe=  371 fps=2.4 q=57.0 size=     768KiB time=00:00:07.40 bitrate= 850.2kbits/s speed=0.0486x elapsed=0:02:32.18    \nframe=  371 fps=2.4 q=57.0 size=     768KiB time=00:00:07.40 bitrate= 850.2kbits/s speed=0.0485x elapsed=0:02:32.69    \nframe=  373 fps=2.4 q=57.0 size=     768KiB time=00:00:07.44 bitrate= 845.6kbits/s speed=0.0486x elapsed=0:02:33.21    \nframe=  375 fps=2.4 q=57.0 size=     768KiB time=00:00:07.48 bitrate= 841.1kbits/s speed=0.0487x elapsed=0:02:33.72    \nframe=  376 fps=2.4 q=57.0 size=     768KiB time=00:00:07.50 bitrate= 838.9kbits/s speed=0.0486x elapsed=0:02:34.24    \nframe=  378 fps=2.4 q=51.0 size=     768KiB time=00:00:07.54 bitrate= 834.4kbits/s speed=0.0487x elapsed=0:02:34.75    \nframe=  379 fps=2.4 q=57.0 size=     768KiB time=00:00:07.56 bitrate= 832.2kbits/s speed=0.0487x elapsed=0:02:35.27    \nframe=  382 fps=2.5 q=57.0 size=     768KiB time=00:00:07.62 bitrate= 825.7kbits/s speed=0.0489x elapsed=0:02:35.80    \nframe=  384 fps=2.5 q=57.0 size=     768KiB time=00:00:07.66 bitrate= 821.3kbits/s speed=0.049x elapsed=0:02:36.31    \nframe=  385 fps=2.5 q=57.0 size=     768KiB time=00:00:07.68 bitrate= 819.2kbits/s speed=0.049x elapsed=0:02:36.82    \nframe=  387 fps=2.5 q=57.0 size=     768KiB time=00:00:07.72 bitrate= 815.0kbits/s speed=0.0491x elapsed=0:02:37.34    \nframe=  391 fps=2.5 q=57.0 size=     768KiB time=00:00:07.80 bitrate= 806.6kbits/s speed=0.0494x elapsed=0:02:37.85    \nframe=  391 fps=2.5 q=57.0 size=     768KiB time=00:00:07.80 bitrate= 806.6kbits/s speed=0.0493x elapsed=0:02:38.36    \nframe=  394 fps=2.5 q=52.0 size=     768KiB time=00:00:07.84 bitrate= 802.5kbits/s speed=0.0493x elapsed=0:02:38.89    \nframe=  395 fps=2.5 q=56.0 size=     768KiB time=00:00:07.88 bitrate= 798.4kbits/s speed=0.0494x elapsed=0:02:39.45    \nframe=  397 fps=2.5 q=56.0 size=     768KiB time=00:00:07.92 bitrate= 794.4kbits/s speed=0.0495x elapsed=0:02:40.11    \nframe=  398 fps=2.5 q=56.0 size=     768KiB time=00:00:07.94 bitrate= 792.4kbits/s speed=0.0494x elapsed=0:02:40.63    \nframe=  400 fps=2.5 q=56.0 size=     768KiB time=00:00:07.98 bitrate= 788.4kbits/s speed=0.0495x elapsed=0:02:41.14    \nframe=  406 fps=2.5 q=57.0 size=     768KiB time=00:00:08.02 bitrate= 784.5kbits/s speed=0.0496x elapsed=0:02:41.71    \nframe=  406 fps=2.5 q=57.0 size=     768KiB time=00:00:08.10 bitrate= 776.7kbits/s speed=0.0498x elapsed=0:02:42.55    \nframe=  408 fps=2.5 q=57.0 size=     768KiB time=00:00:08.14 bitrate= 772.9kbits/s speed=0.0499x elapsed=0:02:43.20    \nframe=  410 fps=2.5 q=52.0 size=     768KiB time=00:00:08.18 bitrate= 769.1kbits/s speed=0.0499x elapsed=0:02:43.76    \nframe=  410 fps=2.5 q=52.0 size=     768KiB time=00:00:08.18 bitrate= 769.1kbits/s speed=0.0498x elapsed=0:02:44.28    \nframe=  410 fps=2.5 q=52.0 size=     768KiB time=00:00:08.18 bitrate= 769.1kbits/s speed=0.0496x elapsed=0:02:44.80    \nframe=  412 fps=2.5 q=56.0 size=     768KiB time=00:00:08.22 bitrate= 765.4kbits/s speed=0.0497x elapsed=0:02:45.33    \nframe=  414 fps=2.5 q=56.0 size=     768KiB time=00:00:08.26 bitrate= 761.7kbits/s speed=0.0498x elapsed=0:02:45.85    \nframe=  416 fps=2.5 q=54.0 size=     768KiB time=00:00:08.30 bitrate= 758.0kbits/s speed=0.0499x elapsed=0:02:46.36    \nframe=  418 fps=2.5 q=45.0 size=     768KiB time=00:00:08.34 bitrate= 754.4kbits/s speed=0.05x elapsed=0:02:46.89    \nframe=  422 fps=2.5 q=57.0 size=     768KiB time=00:00:08.42 bitrate= 747.2kbits/s speed=0.0503x elapsed=0:02:47.42    \nframe=  422 fps=2.5 q=57.0 size=     768KiB time=00:00:08.42 bitrate= 747.2kbits/s speed=0.0501x elapsed=0:02:47.96    \nframe=  424 fps=2.5 q=57.0 size=     768KiB time=00:00:08.46 bitrate= 743.7kbits/s speed=0.0502x elapsed=0:02:48.47    \nframe=  426 fps=2.5 q=52.0 size=     768KiB time=00:00:08.50 bitrate= 740.2kbits/s speed=0.0503x elapsed=0:02:49.08    \nframe=  426 fps=2.5 q=52.0 size=     768KiB time=00:00:08.50 bitrate= 740.2kbits/s speed=0.0501x elapsed=0:02:49.62    \nframe=  430 fps=2.5 q=56.0 size=     768KiB time=00:00:08.58 bitrate= 733.3kbits/s speed=0.0504x elapsed=0:02:50.19    \nframe=  432 fps=2.5 q=56.0 size=     768KiB time=00:00:08.58 bitrate= 733.3kbits/s speed=0.0503x elapsed=0:02:50.74    \nframe=  434 fps=2.5 q=45.0 size=     768KiB time=00:00:08.66 bitrate= 726.5kbits/s speed=0.0506x elapsed=0:02:51.28    \nframe=  434 fps=2.5 q=45.0 size=     768KiB time=00:00:08.66 bitrate= 726.5kbits/s speed=0.0504x elapsed=0:02:51.81    \nframe=  436 fps=2.5 q=57.0 size=     768KiB time=00:00:08.70 bitrate= 723.2kbits/s speed=0.0505x elapsed=0:02:52.37    \nframe=  438 fps=2.5 q=57.0 size=     768KiB time=00:00:08.74 bitrate= 719.8kbits/s speed=0.0505x elapsed=0:02:52.93    \nframe=  438 fps=2.5 q=57.0 size=     768KiB time=00:00:08.74 bitrate= 719.8kbits/s speed=0.0504x elapsed=0:02:53.44    \nframe=  440 fps=2.5 q=57.0 size=     768KiB time=00:00:08.74 bitrate= 719.8kbits/s speed=0.0502x elapsed=0:02:54.07    \nframe=  442 fps=2.5 q=52.0 size=     768KiB time=00:00:08.82 bitrate= 713.3kbits/s speed=0.0505x elapsed=0:02:54.71    \nframe=  442 fps=2.5 q=52.0 size=     768KiB time=00:00:08.82 bitrate= 713.3kbits/s speed=0.0503x elapsed=0:02:55.32    \nframe=  446 fps=2.5 q=56.0 size=     768KiB time=00:00:08.86 bitrate= 710.1kbits/s speed=0.0504x elapsed=0:02:55.89    \nframe=  448 fps=2.5 q=56.0 size=     768KiB time=00:00:08.90 bitrate= 706.9kbits/s speed=0.0504x elapsed=0:02:56.53    \nframe=  450 fps=2.5 q=44.0 size=     768KiB time=00:00:08.98 bitrate= 700.6kbits/s speed=0.0507x elapsed=0:02:57.20    \nframe=  454 fps=2.6 q=56.0 size=     768KiB time=00:00:09.06 bitrate= 694.4kbits/s speed=0.051x elapsed=0:02:57.74    \nframe=  456 fps=2.6 q=56.0 size=     768KiB time=00:00:09.10 bitrate= 691.4kbits/s speed=0.051x elapsed=0:02:58.28    \nframe=  458 fps=2.6 q=52.0 size=     768KiB time=00:00:09.14 bitrate= 688.3kbits/s speed=0.0511x elapsed=0:02:58.81    \nframe=  458 fps=2.6 q=52.0 size=     768KiB time=00:00:09.14 bitrate= 688.3kbits/s speed=0.051x elapsed=0:02:59.34    \nframe=  460 fps=2.6 q=56.0 size=     768KiB time=00:00:09.18 bitrate= 685.3kbits/s speed=0.051x elapsed=0:02:59.91    \nframe=  462 fps=2.6 q=56.0 size=     768KiB time=00:00:09.22 bitrate= 682.4kbits/s speed=0.0511x elapsed=0:03:00.42    \nframe=  464 fps=2.6 q=56.0 size=     768KiB time=00:00:09.26 bitrate= 679.4kbits/s speed=0.0512x elapsed=0:03:00.95    \nframe=  466 fps=2.6 q=45.0 size=     768KiB time=00:00:09.30 bitrate= 676.5kbits/s speed=0.0512x elapsed=0:03:01.54    \nframe=  468 fps=2.6 q=57.0 size=     768KiB time=00:00:09.34 bitrate= 673.6kbits/s speed=0.0513x elapsed=0:03:02.08    \nframe=  470 fps=2.6 q=57.0 size=     768KiB time=00:00:09.38 bitrate= 670.7kbits/s speed=0.0514x elapsed=0:03:02.65    \nframe=  472 fps=2.6 q=57.0 size=     768KiB time=00:00:09.42 bitrate= 667.9kbits/s speed=0.0514x elapsed=0:03:03.21    \nframe=  474 fps=2.6 q=51.0 size=     768KiB time=00:00:09.46 bitrate= 665.1kbits/s speed=0.0515x elapsed=0:03:03.82    \nframe=  474 fps=2.6 q=51.0 size=     768KiB time=00:00:09.46 bitrate= 665.1kbits/s speed=0.0513x elapsed=0:03:04.36    \nframe=  476 fps=2.6 q=56.0 size=     768KiB time=00:00:09.46 bitrate= 665.1kbits/s speed=0.0511x elapsed=0:03:05.00    \nframe=  478 fps=2.6 q=56.0 size=     768KiB time=00:00:09.54 bitrate= 659.5kbits/s speed=0.0514x elapsed=0:03:05.63    \nframe=  480 fps=2.6 q=59.0 size=     768KiB time=00:00:09.58 bitrate= 656.7kbits/s speed=0.0515x elapsed=0:03:06.15    \nframe=  482 fps=2.6 q=43.0 size=     768KiB time=00:00:09.62 bitrate= 654.0kbits/s speed=0.0515x elapsed=0:03:06.67    \nframe=  486 fps=2.6 q=59.0 size=     768KiB time=00:00:09.70 bitrate= 648.6kbits/s speed=0.0518x elapsed=0:03:07.20    \nframe=  488 fps=2.6 q=58.0 size=     768KiB time=00:00:09.74 bitrate= 645.9kbits/s speed=0.0519x elapsed=0:03:07.73    \nframe=  490 fps=2.6 q=56.0 size=     768KiB time=00:00:09.78 bitrate= 643.3kbits/s speed=0.0519x elapsed=0:03:08.29    \nframe=  492 fps=2.6 q=58.0 size=     768KiB time=00:00:09.82 bitrate= 640.7kbits/s speed=0.052x elapsed=0:03:08.83    \nframe=  496 fps=2.6 q=58.0 size=     768KiB time=00:00:09.90 bitrate= 635.5kbits/s speed=0.0523x elapsed=0:03:09.34    \n[out#0/matroska @ 0000020824b79080] video:1170KiB audio:0KiB subtitle:0KiB other streams:0KiB global headers:0KiB muxing overhead: 0.245536%\nframe=  500 fps=2.6 q=56.0 Lsize=    1173KiB time=00:00:09.98 bitrate= 962.5kbits/s speed=0.0527x elapsed=0:03:09.38    \n",
  "seconds": 191.04544162750244,
  "probe_out": {}
}